<mxfile host="app.diagrams.net" modified="2024-03-11T11:34:34.277Z" agent="Mozilla/5.0 (Macintosh; Intel Mac OS X 10_15_7) AppleWebKit/537.36 (KHTML, like Gecko) Chrome/120.0.0.0 Safari/537.36" etag="-k_JmDs2mhS-r13Tr_SJ" version="24.0.4" type="github" pages="2">
  <diagram name="Page-1" id="DSULxuVV72uZJK-TW61q">
    <mxGraphModel dx="1610" dy="1744" grid="1" gridSize="10" guides="1" tooltips="1" connect="1" arrows="1" fold="1" page="1" pageScale="1" pageWidth="827" pageHeight="1169" math="0" shadow="0">
      <root>
        <mxCell id="0" />
        <mxCell id="1" parent="0" />
        <mxCell id="rIKoTJ0nYEZaXtPjpgZJ-3" value="&lt;font color=&quot;#19498c&quot;&gt;Kubernetes Control Plane&lt;/font&gt;" style="rounded=0;whiteSpace=wrap;html=1;strokeColor=#19498C;strokeWidth=1.5;verticalAlign=top;align=left;spacingLeft=35;fontSize=14;" vertex="1" parent="1">
          <mxGeometry x="40" y="420" width="420" height="360" as="geometry" />
        </mxCell>
        <mxCell id="rIKoTJ0nYEZaXtPjpgZJ-1" value="&lt;font color=&quot;#19498c&quot;&gt;Kubernetes Node&lt;/font&gt;" style="rounded=0;whiteSpace=wrap;html=1;strokeColor=#19498C;strokeWidth=1.5;verticalAlign=top;align=left;spacingLeft=35;fontSize=14;fillColor=none;" vertex="1" parent="1">
          <mxGeometry x="680" y="420" width="420" height="360" as="geometry" />
        </mxCell>
        <mxCell id="rIKoTJ0nYEZaXtPjpgZJ-2" value="&lt;font color=&quot;#19498c&quot;&gt;Container Runtime Interface (CRI)&lt;/font&gt;" style="rounded=0;whiteSpace=wrap;html=1;strokeColor=#19498C;strokeWidth=1.5;verticalAlign=top;align=left;spacingLeft=35;fontSize=14;fillColor=default;" vertex="1" parent="1">
          <mxGeometry x="700.5" y="620" width="379.5" height="140" as="geometry" />
        </mxCell>
        <mxCell id="rIKoTJ0nYEZaXtPjpgZJ-4" value="" style="rounded=0;whiteSpace=wrap;html=1;strokeColor=#19498C;strokeWidth=1.5;fillColor=#19498C;" vertex="1" parent="1">
          <mxGeometry x="40" y="420" width="30" height="30" as="geometry" />
        </mxCell>
        <mxCell id="rIKoTJ0nYEZaXtPjpgZJ-5" value="" style="html=1;verticalLabelPosition=bottom;align=center;labelBackgroundColor=#ffffff;verticalAlign=top;strokeWidth=2;strokeColor=#FFFFFF;shadow=0;dashed=0;shape=mxgraph.ios7.icons.cube;fillColor=none;" vertex="1" parent="1">
          <mxGeometry x="45" y="425" width="20" height="20" as="geometry" />
        </mxCell>
        <mxCell id="rIKoTJ0nYEZaXtPjpgZJ-6" value="" style="rounded=0;whiteSpace=wrap;html=1;strokeColor=#19498C;strokeWidth=1.5;fillColor=#19498C;" vertex="1" parent="1">
          <mxGeometry x="680" y="420" width="30" height="30" as="geometry" />
        </mxCell>
        <mxCell id="rIKoTJ0nYEZaXtPjpgZJ-7" value="&lt;font color=&quot;#19498c&quot;&gt;Agent and Networking&lt;/font&gt;" style="rounded=0;whiteSpace=wrap;html=1;strokeColor=#19498C;strokeWidth=1.5;verticalAlign=top;align=left;spacingLeft=35;fontSize=14;" vertex="1" parent="1">
          <mxGeometry x="700" y="470" width="380" height="130" as="geometry" />
        </mxCell>
        <mxCell id="rIKoTJ0nYEZaXtPjpgZJ-8" value="" style="rounded=0;whiteSpace=wrap;html=1;strokeColor=#19498C;strokeWidth=1.5;fillColor=#19498C;" vertex="1" parent="1">
          <mxGeometry x="700" y="470" width="30" height="30" as="geometry" />
        </mxCell>
        <mxCell id="rIKoTJ0nYEZaXtPjpgZJ-9" value="" style="rounded=0;whiteSpace=wrap;html=1;strokeColor=#19498C;strokeWidth=1.5;fillColor=#19498C;" vertex="1" parent="1">
          <mxGeometry x="700" y="620" width="30" height="30" as="geometry" />
        </mxCell>
        <mxCell id="rIKoTJ0nYEZaXtPjpgZJ-10" value="Components" parent="0" />
        <mxCell id="rIKoTJ0nYEZaXtPjpgZJ-11" value="" style="group" vertex="1" connectable="0" parent="rIKoTJ0nYEZaXtPjpgZJ-10">
          <mxGeometry x="280" y="470" width="160" height="60" as="geometry" />
        </mxCell>
        <mxCell id="rIKoTJ0nYEZaXtPjpgZJ-12" value="&lt;font color=&quot;#19498c&quot;&gt;&lt;b&gt;Cloud&amp;nbsp;&lt;/b&gt;&lt;/font&gt;&lt;div&gt;&lt;font color=&quot;#19498c&quot;&gt;&lt;b&gt;Control Manager&lt;/b&gt;&lt;/font&gt;&lt;/div&gt;" style="rounded=0;whiteSpace=wrap;html=1;strokeWidth=1.5;strokeColor=#2875E2;align=left;spacingLeft=75;" vertex="1" parent="rIKoTJ0nYEZaXtPjpgZJ-11">
          <mxGeometry width="160" height="60" as="geometry" />
        </mxCell>
        <mxCell id="rIKoTJ0nYEZaXtPjpgZJ-13" value="" style="endArrow=none;html=1;rounded=0;strokeWidth=1.5;strokeColor=#2875E2;" edge="1" parent="rIKoTJ0nYEZaXtPjpgZJ-11">
          <mxGeometry width="50" height="50" relative="1" as="geometry">
            <mxPoint x="66" y="12" as="sourcePoint" />
            <mxPoint x="66" y="52" as="targetPoint" />
          </mxGeometry>
        </mxCell>
        <mxCell id="rIKoTJ0nYEZaXtPjpgZJ-14" value="" style="aspect=fixed;sketch=0;html=1;dashed=0;whitespace=wrap;fillColor=#2875E2;strokeColor=#ffffff;points=[[0.005,0.63,0],[0.1,0.2,0],[0.9,0.2,0],[0.5,0,0],[0.995,0.63,0],[0.72,0.99,0],[0.5,1,0],[0.28,0.99,0]];shape=mxgraph.kubernetes.icon2;prIcon=c_c_m" vertex="1" parent="rIKoTJ0nYEZaXtPjpgZJ-11">
          <mxGeometry x="5" y="6" width="50" height="48" as="geometry" />
        </mxCell>
        <mxCell id="rIKoTJ0nYEZaXtPjpgZJ-15" value="" style="group" vertex="1" connectable="0" parent="rIKoTJ0nYEZaXtPjpgZJ-10">
          <mxGeometry x="900" y="520" width="160" height="60" as="geometry" />
        </mxCell>
        <mxCell id="rIKoTJ0nYEZaXtPjpgZJ-16" value="&lt;font color=&quot;#19498c&quot;&gt;&lt;b&gt;Kube Proxy&lt;/b&gt;&lt;/font&gt;" style="rounded=0;whiteSpace=wrap;html=1;strokeWidth=1.5;strokeColor=#2875E2;align=left;spacingLeft=75;" vertex="1" parent="rIKoTJ0nYEZaXtPjpgZJ-15">
          <mxGeometry width="160" height="60" as="geometry" />
        </mxCell>
        <mxCell id="rIKoTJ0nYEZaXtPjpgZJ-17" value="" style="endArrow=none;html=1;rounded=0;strokeWidth=1.5;strokeColor=#2875E2;" edge="1" parent="rIKoTJ0nYEZaXtPjpgZJ-15">
          <mxGeometry width="50" height="50" relative="1" as="geometry">
            <mxPoint x="66" y="12" as="sourcePoint" />
            <mxPoint x="66" y="52" as="targetPoint" />
          </mxGeometry>
        </mxCell>
        <mxCell id="rIKoTJ0nYEZaXtPjpgZJ-18" value="" style="aspect=fixed;sketch=0;html=1;dashed=0;whitespace=wrap;fillColor=#2875E2;strokeColor=#ffffff;points=[[0.005,0.63,0],[0.1,0.2,0],[0.9,0.2,0],[0.5,0,0],[0.995,0.63,0],[0.72,0.99,0],[0.5,1,0],[0.28,0.99,0]];shape=mxgraph.kubernetes.icon2;prIcon=k_proxy;verticalAlign=bottom;spacingBottom=-20;" vertex="1" parent="rIKoTJ0nYEZaXtPjpgZJ-15">
          <mxGeometry x="5" y="6" width="50" height="48" as="geometry" />
        </mxCell>
        <mxCell id="rIKoTJ0nYEZaXtPjpgZJ-19" value="" style="group" vertex="1" connectable="0" parent="rIKoTJ0nYEZaXtPjpgZJ-10">
          <mxGeometry x="280" y="585" width="160" height="60" as="geometry" />
        </mxCell>
        <mxCell id="rIKoTJ0nYEZaXtPjpgZJ-20" value="&lt;font color=&quot;#19498c&quot;&gt;&lt;b&gt;API&lt;/b&gt;&lt;/font&gt;&lt;div&gt;&lt;font color=&quot;#19498c&quot;&gt;&lt;b&gt;Server&lt;/b&gt;&lt;/font&gt;&lt;/div&gt;" style="rounded=0;whiteSpace=wrap;html=1;strokeWidth=1.5;strokeColor=#2875E2;align=left;spacingLeft=75;" vertex="1" parent="rIKoTJ0nYEZaXtPjpgZJ-19">
          <mxGeometry width="160" height="60" as="geometry" />
        </mxCell>
        <mxCell id="rIKoTJ0nYEZaXtPjpgZJ-21" value="" style="endArrow=none;html=1;rounded=0;strokeWidth=1.5;strokeColor=#2875E2;" edge="1" parent="rIKoTJ0nYEZaXtPjpgZJ-19">
          <mxGeometry width="50" height="50" relative="1" as="geometry">
            <mxPoint x="66" y="12" as="sourcePoint" />
            <mxPoint x="66" y="52" as="targetPoint" />
          </mxGeometry>
        </mxCell>
        <mxCell id="rIKoTJ0nYEZaXtPjpgZJ-22" value="" style="aspect=fixed;sketch=0;html=1;dashed=0;whitespace=wrap;fillColor=#2875E2;strokeColor=#ffffff;points=[[0.005,0.63,0],[0.1,0.2,0],[0.9,0.2,0],[0.5,0,0],[0.995,0.63,0],[0.72,0.99,0],[0.5,1,0],[0.28,0.99,0]];shape=mxgraph.kubernetes.icon2;prIcon=c_c_m" vertex="1" parent="rIKoTJ0nYEZaXtPjpgZJ-19">
          <mxGeometry x="5" y="6" width="50" height="48" as="geometry" />
        </mxCell>
        <mxCell id="rIKoTJ0nYEZaXtPjpgZJ-23" style="edgeStyle=orthogonalEdgeStyle;rounded=0;orthogonalLoop=1;jettySize=auto;html=1;startArrow=classic;startFill=1;" edge="1" parent="rIKoTJ0nYEZaXtPjpgZJ-10" source="rIKoTJ0nYEZaXtPjpgZJ-20" target="rIKoTJ0nYEZaXtPjpgZJ-12">
          <mxGeometry relative="1" as="geometry" />
        </mxCell>
        <mxCell id="rIKoTJ0nYEZaXtPjpgZJ-24" value="" style="group" vertex="1" connectable="0" parent="rIKoTJ0nYEZaXtPjpgZJ-10">
          <mxGeometry x="60" y="700" width="160" height="60" as="geometry" />
        </mxCell>
        <mxCell id="rIKoTJ0nYEZaXtPjpgZJ-25" value="&lt;font color=&quot;#19498c&quot;&gt;&lt;b&gt;Scheduler&lt;/b&gt;&lt;/font&gt;" style="rounded=0;whiteSpace=wrap;html=1;strokeWidth=1.5;strokeColor=#2875E2;align=left;spacingLeft=75;" vertex="1" parent="rIKoTJ0nYEZaXtPjpgZJ-24">
          <mxGeometry width="160" height="60" as="geometry" />
        </mxCell>
        <mxCell id="rIKoTJ0nYEZaXtPjpgZJ-26" value="" style="endArrow=none;html=1;rounded=0;strokeWidth=1.5;strokeColor=#2875E2;" edge="1" parent="rIKoTJ0nYEZaXtPjpgZJ-24">
          <mxGeometry width="50" height="50" relative="1" as="geometry">
            <mxPoint x="66" y="12" as="sourcePoint" />
            <mxPoint x="66" y="52" as="targetPoint" />
          </mxGeometry>
        </mxCell>
        <mxCell id="rIKoTJ0nYEZaXtPjpgZJ-27" value="" style="aspect=fixed;sketch=0;html=1;dashed=0;whitespace=wrap;fillColor=#2875E2;strokeColor=#ffffff;points=[[0.005,0.63,0],[0.1,0.2,0],[0.9,0.2,0],[0.5,0,0],[0.995,0.63,0],[0.72,0.99,0],[0.5,1,0],[0.28,0.99,0]];shape=mxgraph.kubernetes.icon2;prIcon=c_c_m" vertex="1" parent="rIKoTJ0nYEZaXtPjpgZJ-24">
          <mxGeometry x="5" y="6" width="50" height="48" as="geometry" />
        </mxCell>
        <mxCell id="rIKoTJ0nYEZaXtPjpgZJ-28" style="edgeStyle=orthogonalEdgeStyle;rounded=0;orthogonalLoop=1;jettySize=auto;html=1;entryX=0;entryY=0.75;entryDx=0;entryDy=0;" edge="1" parent="rIKoTJ0nYEZaXtPjpgZJ-10" source="rIKoTJ0nYEZaXtPjpgZJ-25" target="rIKoTJ0nYEZaXtPjpgZJ-20">
          <mxGeometry relative="1" as="geometry">
            <Array as="points">
              <mxPoint x="160" y="630" />
            </Array>
          </mxGeometry>
        </mxCell>
        <mxCell id="rIKoTJ0nYEZaXtPjpgZJ-29" value="" style="group" vertex="1" connectable="0" parent="rIKoTJ0nYEZaXtPjpgZJ-10">
          <mxGeometry x="720" y="520" width="160" height="60" as="geometry" />
        </mxCell>
        <mxCell id="rIKoTJ0nYEZaXtPjpgZJ-30" value="&lt;font color=&quot;#19498c&quot;&gt;&lt;b&gt;Kubelet&lt;/b&gt;&lt;/font&gt;" style="rounded=0;whiteSpace=wrap;html=1;strokeWidth=1.5;strokeColor=#2875E2;align=left;spacingLeft=75;" vertex="1" parent="rIKoTJ0nYEZaXtPjpgZJ-29">
          <mxGeometry width="160" height="60" as="geometry" />
        </mxCell>
        <mxCell id="rIKoTJ0nYEZaXtPjpgZJ-31" value="" style="endArrow=none;html=1;rounded=0;strokeWidth=1.5;strokeColor=#2875E2;" edge="1" parent="rIKoTJ0nYEZaXtPjpgZJ-29">
          <mxGeometry width="50" height="50" relative="1" as="geometry">
            <mxPoint x="66" y="12" as="sourcePoint" />
            <mxPoint x="66" y="52" as="targetPoint" />
          </mxGeometry>
        </mxCell>
        <mxCell id="rIKoTJ0nYEZaXtPjpgZJ-32" value="" style="aspect=fixed;sketch=0;html=1;dashed=0;whitespace=wrap;fillColor=#2875E2;strokeColor=#ffffff;points=[[0.005,0.63,0],[0.1,0.2,0],[0.9,0.2,0],[0.5,0,0],[0.995,0.63,0],[0.72,0.99,0],[0.5,1,0],[0.28,0.99,0]];shape=mxgraph.kubernetes.icon2;kubernetesLabel=1;prIcon=kubelet" vertex="1" parent="rIKoTJ0nYEZaXtPjpgZJ-29">
          <mxGeometry x="5" y="6" width="50" height="48" as="geometry" />
        </mxCell>
        <mxCell id="rIKoTJ0nYEZaXtPjpgZJ-33" value="" style="group" vertex="1" connectable="0" parent="rIKoTJ0nYEZaXtPjpgZJ-10">
          <mxGeometry x="720" y="680" width="160" height="60" as="geometry" />
        </mxCell>
        <mxCell id="rIKoTJ0nYEZaXtPjpgZJ-34" value="&lt;font color=&quot;#19498c&quot;&gt;&lt;b&gt;Pod&lt;/b&gt;&lt;/font&gt;" style="rounded=0;whiteSpace=wrap;html=1;strokeWidth=1.5;strokeColor=#2875E2;align=left;spacingLeft=75;" vertex="1" parent="rIKoTJ0nYEZaXtPjpgZJ-33">
          <mxGeometry width="160" height="60" as="geometry" />
        </mxCell>
        <mxCell id="rIKoTJ0nYEZaXtPjpgZJ-35" value="" style="endArrow=none;html=1;rounded=0;strokeWidth=1.5;strokeColor=#2875E2;" edge="1" parent="rIKoTJ0nYEZaXtPjpgZJ-33">
          <mxGeometry width="50" height="50" relative="1" as="geometry">
            <mxPoint x="66" y="12" as="sourcePoint" />
            <mxPoint x="66" y="52" as="targetPoint" />
          </mxGeometry>
        </mxCell>
        <mxCell id="rIKoTJ0nYEZaXtPjpgZJ-36" value="" style="aspect=fixed;sketch=0;html=1;dashed=0;whitespace=wrap;fillColor=#2875E2;strokeColor=#ffffff;points=[[0.005,0.63,0],[0.1,0.2,0],[0.9,0.2,0],[0.5,0,0],[0.995,0.63,0],[0.72,0.99,0],[0.5,1,0],[0.28,0.99,0]];shape=mxgraph.kubernetes.icon2;prIcon=pod;spacingBottom=-20;verticalAlign=bottom;" vertex="1" parent="rIKoTJ0nYEZaXtPjpgZJ-33">
          <mxGeometry x="5" y="6" width="50" height="48" as="geometry" />
        </mxCell>
        <mxCell id="rIKoTJ0nYEZaXtPjpgZJ-37" value="" style="group" vertex="1" connectable="0" parent="rIKoTJ0nYEZaXtPjpgZJ-10">
          <mxGeometry x="900" y="680" width="160" height="60" as="geometry" />
        </mxCell>
        <mxCell id="rIKoTJ0nYEZaXtPjpgZJ-38" value="&lt;font color=&quot;#19498c&quot;&gt;&lt;b&gt;Pod&lt;/b&gt;&lt;/font&gt;" style="rounded=0;whiteSpace=wrap;html=1;strokeWidth=1.5;strokeColor=#2875E2;align=left;spacingLeft=75;" vertex="1" parent="rIKoTJ0nYEZaXtPjpgZJ-37">
          <mxGeometry width="160" height="60" as="geometry" />
        </mxCell>
        <mxCell id="rIKoTJ0nYEZaXtPjpgZJ-39" value="" style="endArrow=none;html=1;rounded=0;strokeWidth=1.5;strokeColor=#2875E2;" edge="1" parent="rIKoTJ0nYEZaXtPjpgZJ-37">
          <mxGeometry width="50" height="50" relative="1" as="geometry">
            <mxPoint x="66" y="12" as="sourcePoint" />
            <mxPoint x="66" y="52" as="targetPoint" />
          </mxGeometry>
        </mxCell>
        <mxCell id="rIKoTJ0nYEZaXtPjpgZJ-40" value="" style="aspect=fixed;sketch=0;html=1;dashed=0;whitespace=wrap;fillColor=#2875E2;strokeColor=#ffffff;points=[[0.005,0.63,0],[0.1,0.2,0],[0.9,0.2,0],[0.5,0,0],[0.995,0.63,0],[0.72,0.99,0],[0.5,1,0],[0.28,0.99,0]];shape=mxgraph.kubernetes.icon2;prIcon=pod;spacingBottom=-20;verticalAlign=bottom;" vertex="1" parent="rIKoTJ0nYEZaXtPjpgZJ-37">
          <mxGeometry x="5" y="6" width="50" height="48" as="geometry" />
        </mxCell>
        <mxCell id="rIKoTJ0nYEZaXtPjpgZJ-41" value="Notes" parent="0" />
        <mxCell id="rIKoTJ0nYEZaXtPjpgZJ-42" style="edgeStyle=orthogonalEdgeStyle;rounded=0;orthogonalLoop=1;jettySize=auto;html=1;entryX=0;entryY=0.5;entryDx=0;entryDy=0;" edge="1" parent="rIKoTJ0nYEZaXtPjpgZJ-41" source="rIKoTJ0nYEZaXtPjpgZJ-43">
          <mxGeometry relative="1" as="geometry">
            <mxPoint x="280" y="500" as="targetPoint" />
          </mxGeometry>
        </mxCell>
        <mxCell id="rIKoTJ0nYEZaXtPjpgZJ-43" value="&lt;div style=&quot;font-size: 14px;&quot;&gt;&lt;b style=&quot;&quot;&gt;&lt;font style=&quot;font-size: 14px;&quot;&gt;Cloud Control Manager&lt;br&gt;&lt;br&gt;&lt;/font&gt;&lt;/b&gt;&lt;/div&gt;Allows different cloud providers to implement Kubernetes.&lt;div&gt;&lt;br&gt;&lt;/div&gt;&lt;div&gt;Middleman between API Server commands and Cloud-native logic/operations&lt;/div&gt;" style="shape=note;whiteSpace=wrap;html=1;backgroundOutline=1;darkOpacity=0.05;fillColor=#fff2cc;strokeColor=#d6b656;fontColor=#666600;align=left;" vertex="1" parent="rIKoTJ0nYEZaXtPjpgZJ-41">
          <mxGeometry x="-40" y="225" width="200" height="150" as="geometry" />
        </mxCell>
        <UserObject label="https://kubernetes.io/docs/concepts/architecture/cloud-controller/" link="https://kubernetes.io/docs/concepts/architecture/cloud-controller/" id="rIKoTJ0nYEZaXtPjpgZJ-44">
          <mxCell style="text;whiteSpace=wrap;" vertex="1" parent="rIKoTJ0nYEZaXtPjpgZJ-41">
            <mxGeometry x="360" y="-710" width="380" height="40" as="geometry" />
          </mxCell>
        </UserObject>
        <mxCell id="rIKoTJ0nYEZaXtPjpgZJ-45" value="" style="group" vertex="1" connectable="0" parent="rIKoTJ0nYEZaXtPjpgZJ-41">
          <mxGeometry x="280" y="700" width="160" height="60" as="geometry" />
        </mxCell>
        <mxCell id="rIKoTJ0nYEZaXtPjpgZJ-46" value="&lt;font color=&quot;#19498c&quot;&gt;&lt;b&gt;ETCD&lt;/b&gt;&lt;/font&gt;" style="rounded=0;whiteSpace=wrap;html=1;strokeWidth=1.5;strokeColor=#2875E2;align=left;spacingLeft=75;" vertex="1" parent="rIKoTJ0nYEZaXtPjpgZJ-45">
          <mxGeometry width="160" height="60" as="geometry" />
        </mxCell>
        <mxCell id="rIKoTJ0nYEZaXtPjpgZJ-47" value="" style="endArrow=none;html=1;rounded=0;strokeWidth=1.5;strokeColor=#2875E2;" edge="1" parent="rIKoTJ0nYEZaXtPjpgZJ-45">
          <mxGeometry width="50" height="50" relative="1" as="geometry">
            <mxPoint x="66" y="12" as="sourcePoint" />
            <mxPoint x="66" y="52" as="targetPoint" />
          </mxGeometry>
        </mxCell>
        <mxCell id="rIKoTJ0nYEZaXtPjpgZJ-48" value="" style="aspect=fixed;sketch=0;html=1;dashed=0;whitespace=wrap;fillColor=#2875E2;strokeColor=#ffffff;points=[[0.005,0.63,0],[0.1,0.2,0],[0.9,0.2,0],[0.5,0,0],[0.995,0.63,0],[0.72,0.99,0],[0.5,1,0],[0.28,0.99,0]];shape=mxgraph.kubernetes.icon2;prIcon=etcd;verticalAlign=bottom;spacingBottom=-20;" vertex="1" parent="rIKoTJ0nYEZaXtPjpgZJ-45">
          <mxGeometry x="5" y="6" width="50" height="48" as="geometry" />
        </mxCell>
        <mxCell id="rIKoTJ0nYEZaXtPjpgZJ-49" style="edgeStyle=orthogonalEdgeStyle;rounded=0;orthogonalLoop=1;jettySize=auto;html=1;entryX=0.5;entryY=1;entryDx=0;entryDy=0;" edge="1" parent="rIKoTJ0nYEZaXtPjpgZJ-41" source="rIKoTJ0nYEZaXtPjpgZJ-46">
          <mxGeometry relative="1" as="geometry">
            <mxPoint x="360" y="645" as="targetPoint" />
          </mxGeometry>
        </mxCell>
        <mxCell id="rIKoTJ0nYEZaXtPjpgZJ-50" style="edgeStyle=orthogonalEdgeStyle;rounded=0;orthogonalLoop=1;jettySize=auto;html=1;entryX=0;entryY=0.5;entryDx=0;entryDy=0;" edge="1" parent="rIKoTJ0nYEZaXtPjpgZJ-41" source="rIKoTJ0nYEZaXtPjpgZJ-51">
          <mxGeometry relative="1" as="geometry">
            <mxPoint x="60" y="730" as="targetPoint" />
          </mxGeometry>
        </mxCell>
        <mxCell id="rIKoTJ0nYEZaXtPjpgZJ-51" value="&lt;div style=&quot;font-size: 14px;&quot;&gt;&lt;b style=&quot;&quot;&gt;&lt;font style=&quot;font-size: 14px;&quot;&gt;Scheduler&lt;/font&gt;&lt;/b&gt;&lt;/div&gt;&lt;div style=&quot;font-size: 14px;&quot;&gt;&lt;b style=&quot;&quot;&gt;&lt;font style=&quot;font-size: 14px;&quot;&gt;&lt;br&gt;&lt;/font&gt;&lt;/b&gt;&lt;/div&gt;Selects an optimal node to run newly created or not yet scheduled (unscheduled) pods.&lt;div&gt;&lt;br&gt;&lt;/div&gt;&lt;div&gt;Schedule requirements include collective resource req, hardware/software/policy contraints, affinity/anti-affinity specifications, data locality, inter-workload interface&lt;/div&gt;" style="shape=note;whiteSpace=wrap;html=1;backgroundOutline=1;darkOpacity=0.05;fillColor=#fff2cc;strokeColor=#d6b656;fontColor=#666600;align=left;" vertex="1" parent="rIKoTJ0nYEZaXtPjpgZJ-41">
          <mxGeometry x="-230" y="627.5" width="200" height="205" as="geometry" />
        </mxCell>
        <mxCell id="rIKoTJ0nYEZaXtPjpgZJ-52" value="&lt;div style=&quot;font-size: 14px;&quot;&gt;&lt;b style=&quot;&quot;&gt;&lt;font style=&quot;font-size: 14px;&quot;&gt;etcd&lt;/font&gt;&lt;/b&gt;&lt;/div&gt;&lt;div style=&quot;font-size: 14px;&quot;&gt;&lt;b style=&quot;&quot;&gt;&lt;font style=&quot;font-size: 14px;&quot;&gt;&lt;br&gt;&lt;/font&gt;&lt;/b&gt;&lt;/div&gt;&lt;p style=&quot;box-sizing: border-box; margin-top: 0px; margin-bottom: 1rem; max-width: 80%; font-family: &amp;quot;open sans&amp;quot;, -apple-system, &amp;quot;system-ui&amp;quot;, &amp;quot;segoe ui&amp;quot;, Roboto, &amp;quot;helvetica neue&amp;quot;, Arial, sans-serif, &amp;quot;apple color emoji&amp;quot;, &amp;quot;segoe ui emoji&amp;quot;, &amp;quot;segoe ui symbol&amp;quot;;&quot;&gt;&lt;font style=&quot;font-size: 12px;&quot;&gt;etcd is a consistent and highly-available key value store used as Kubernetes&#39; backing store for all cluster data&lt;/font&gt;&lt;/p&gt;&lt;p style=&quot;box-sizing: border-box; margin-top: 0px; margin-bottom: 1rem; max-width: 80%; color: rgb(34, 34, 34); font-family: &amp;quot;open sans&amp;quot;, -apple-system, &amp;quot;system-ui&amp;quot;, &amp;quot;segoe ui&amp;quot;, Roboto, &amp;quot;helvetica neue&amp;quot;, Arial, sans-serif, &amp;quot;apple color emoji&amp;quot;, &amp;quot;segoe ui emoji&amp;quot;, &amp;quot;segoe ui symbol&amp;quot;; font-size: 16px; background-color: rgb(255, 255, 255);&quot;&gt;&lt;/p&gt;" style="shape=note;whiteSpace=wrap;html=1;backgroundOutline=1;darkOpacity=0.05;fillColor=#fff2cc;strokeColor=#d6b656;fontColor=#666600;align=left;" vertex="1" parent="rIKoTJ0nYEZaXtPjpgZJ-41">
          <mxGeometry x="280" y="800" width="200" height="150" as="geometry" />
        </mxCell>
        <mxCell id="rIKoTJ0nYEZaXtPjpgZJ-53" value="" style="sketch=0;outlineConnect=0;fontColor=#232F3E;gradientColor=none;fillColor=#FFFFFF;strokeColor=none;dashed=0;verticalLabelPosition=bottom;verticalAlign=top;align=center;html=1;fontSize=12;fontStyle=0;aspect=fixed;pointerEvents=1;shape=mxgraph.aws4.instance2;" vertex="1" parent="rIKoTJ0nYEZaXtPjpgZJ-41">
          <mxGeometry x="682" y="422" width="25" height="25" as="geometry" />
        </mxCell>
        <mxCell id="rIKoTJ0nYEZaXtPjpgZJ-54" value="&lt;span style=&quot;color: rgb(32, 33, 36); font-family: &amp;quot;Google Sans&amp;quot;, arial, sans-serif; font-size: 20px; font-style: normal; font-variant-ligatures: normal; font-variant-caps: normal; font-weight: 400; letter-spacing: normal; orphans: 2; text-align: left; text-indent: 0px; text-transform: none; widows: 2; word-spacing: 0px; -webkit-text-stroke-width: 0px; white-space: normal; background-color: rgb(255, 255, 255); text-decoration-thickness: initial; text-decoration-style: initial; text-decoration-color: initial; display: inline !important; float: none;&quot;&gt;The name Kubernetes originates from Greek, meaning helmsman or pilot. K8s as an abbreviation&lt;span&gt;&amp;nbsp;&lt;/span&gt;&lt;/span&gt;&lt;b style=&quot;background-color: rgb(211, 227, 253); color: rgb(4, 12, 40); font-weight: 500; font-family: &amp;quot;Google Sans&amp;quot;, arial, sans-serif; font-size: 20px; font-style: normal; font-variant-ligatures: normal; font-variant-caps: normal; letter-spacing: normal; orphans: 2; text-align: left; text-indent: 0px; text-transform: none; widows: 2; word-spacing: 0px; -webkit-text-stroke-width: 0px; white-space: normal; text-decoration-thickness: initial; text-decoration-style: initial; text-decoration-color: initial;&quot;&gt;results from counting the eight letters between the &quot;K&quot; and the &quot;s&quot;&lt;/b&gt;" style="text;whiteSpace=wrap;html=1;" vertex="1" parent="rIKoTJ0nYEZaXtPjpgZJ-41">
          <mxGeometry x="550" y="-340" width="560" height="100" as="geometry" />
        </mxCell>
        <mxCell id="rIKoTJ0nYEZaXtPjpgZJ-55" value="" style="sketch=0;pointerEvents=1;shadow=0;dashed=0;html=1;aspect=fixed;labelPosition=center;verticalLabelPosition=bottom;verticalAlign=top;align=center;outlineConnect=0;shape=mxgraph.vvd.networks;strokeColor=#FFFFFF;" vertex="1" parent="rIKoTJ0nYEZaXtPjpgZJ-41">
          <mxGeometry x="702" y="476" width="25" height="15.25" as="geometry" />
        </mxCell>
        <mxCell id="rIKoTJ0nYEZaXtPjpgZJ-56" style="edgeStyle=orthogonalEdgeStyle;rounded=0;orthogonalLoop=1;jettySize=auto;html=1;exitX=0.5;exitY=1;exitDx=0;exitDy=0;" edge="1" parent="rIKoTJ0nYEZaXtPjpgZJ-41">
          <mxGeometry relative="1" as="geometry">
            <mxPoint x="800" y="680" as="targetPoint" />
            <Array as="points">
              <mxPoint x="890" y="660" />
              <mxPoint x="800" y="660" />
            </Array>
            <mxPoint x="890" y="600" as="sourcePoint" />
          </mxGeometry>
        </mxCell>
        <mxCell id="rIKoTJ0nYEZaXtPjpgZJ-57" style="edgeStyle=orthogonalEdgeStyle;rounded=0;orthogonalLoop=1;jettySize=auto;html=1;entryX=0.5;entryY=0;entryDx=0;entryDy=0;" edge="1" parent="rIKoTJ0nYEZaXtPjpgZJ-41">
          <mxGeometry relative="1" as="geometry">
            <Array as="points">
              <mxPoint x="890" y="660" />
              <mxPoint x="980" y="660" />
            </Array>
            <mxPoint x="890" y="600" as="sourcePoint" />
            <mxPoint x="980" y="680" as="targetPoint" />
          </mxGeometry>
        </mxCell>
        <mxCell id="rIKoTJ0nYEZaXtPjpgZJ-58" value="" style="outlineConnect=0;dashed=0;verticalLabelPosition=bottom;verticalAlign=top;align=center;html=1;shape=mxgraph.aws3.ec2_compute_container;fillColor=#19498C;gradientColor=none;strokeColor=#FFFFFF;strokeWidth=6;" vertex="1" parent="rIKoTJ0nYEZaXtPjpgZJ-41">
          <mxGeometry x="702" y="628" width="25.22" height="14.5" as="geometry" />
        </mxCell>
        <mxCell id="rIKoTJ0nYEZaXtPjpgZJ-59" value="&lt;div style=&quot;font-size: 14px;&quot;&gt;&lt;b style=&quot;&quot;&gt;&lt;font style=&quot;font-size: 14px;&quot;&gt;Container Runtime Interface&lt;/font&gt;&lt;/b&gt;&lt;/div&gt;&lt;div style=&quot;font-size: 14px;&quot;&gt;&lt;b style=&quot;&quot;&gt;&lt;font style=&quot;font-size: 14px;&quot;&gt;&lt;br&gt;&lt;/font&gt;&lt;/b&gt;&lt;/div&gt;&lt;p style=&quot;box-sizing: border-box; margin-top: 0px; margin-bottom: 1rem; max-width: 80%; font-family: &amp;quot;open sans&amp;quot;, -apple-system, &amp;quot;system-ui&amp;quot;, &amp;quot;segoe ui&amp;quot;, Roboto, &amp;quot;helvetica neue&amp;quot;, Arial, sans-serif, &amp;quot;apple color emoji&amp;quot;, &amp;quot;segoe ui emoji&amp;quot;, &amp;quot;segoe ui symbol&amp;quot;;&quot;&gt;Main protocol for the communciation between kubelet and Container Runtime&lt;/p&gt;&lt;p style=&quot;box-sizing: border-box; margin-top: 0px; margin-bottom: 1rem; max-width: 80%; color: rgb(34, 34, 34); font-family: &amp;quot;open sans&amp;quot;, -apple-system, &amp;quot;system-ui&amp;quot;, &amp;quot;segoe ui&amp;quot;, Roboto, &amp;quot;helvetica neue&amp;quot;, Arial, sans-serif, &amp;quot;apple color emoji&amp;quot;, &amp;quot;segoe ui emoji&amp;quot;, &amp;quot;segoe ui symbol&amp;quot;; font-size: 16px; background-color: rgb(255, 255, 255);&quot;&gt;&lt;/p&gt;" style="shape=note;whiteSpace=wrap;html=1;backgroundOutline=1;darkOpacity=0.05;fillColor=#fff2cc;strokeColor=#d6b656;fontColor=#666600;align=left;" vertex="1" parent="rIKoTJ0nYEZaXtPjpgZJ-41">
          <mxGeometry x="1180" y="620" width="200" height="150" as="geometry" />
        </mxCell>
        <mxCell id="rIKoTJ0nYEZaXtPjpgZJ-60" value="&lt;div style=&quot;font-size: 14px;&quot;&gt;&lt;b&gt;Kube Proxy&lt;/b&gt;&lt;/div&gt;&lt;p style=&quot;box-sizing: border-box; margin-top: 0px; margin-bottom: 1rem; max-width: 80%; font-family: &amp;quot;open sans&amp;quot;, -apple-system, &amp;quot;system-ui&amp;quot;, &amp;quot;segoe ui&amp;quot;, Roboto, &amp;quot;helvetica neue&amp;quot;, Arial, sans-serif, &amp;quot;apple color emoji&amp;quot;, &amp;quot;segoe ui emoji&amp;quot;, &amp;quot;segoe ui symbol&amp;quot;;&quot;&gt;Manages Kube network routing and forwarding&amp;nbsp;&lt;/p&gt;&lt;p style=&quot;box-sizing: border-box; margin-top: 0px; margin-bottom: 1rem; max-width: 80%; color: rgb(34, 34, 34); font-family: &amp;quot;open sans&amp;quot;, -apple-system, &amp;quot;system-ui&amp;quot;, &amp;quot;segoe ui&amp;quot;, Roboto, &amp;quot;helvetica neue&amp;quot;, Arial, sans-serif, &amp;quot;apple color emoji&amp;quot;, &amp;quot;segoe ui emoji&amp;quot;, &amp;quot;segoe ui symbol&amp;quot;; font-size: 16px; background-color: rgb(255, 255, 255);&quot;&gt;&lt;/p&gt;" style="shape=note;whiteSpace=wrap;html=1;backgroundOutline=1;darkOpacity=0.05;fillColor=#fff2cc;strokeColor=#d6b656;fontColor=#666600;align=left;" vertex="1" parent="rIKoTJ0nYEZaXtPjpgZJ-41">
          <mxGeometry x="1180" y="430" width="200" height="150" as="geometry" />
        </mxCell>
        <mxCell id="rIKoTJ0nYEZaXtPjpgZJ-61" style="edgeStyle=orthogonalEdgeStyle;rounded=0;orthogonalLoop=1;jettySize=auto;html=1;entryX=1;entryY=0.5;entryDx=0;entryDy=0;" edge="1" parent="rIKoTJ0nYEZaXtPjpgZJ-41">
          <mxGeometry relative="1" as="geometry">
            <mxPoint x="700" y="535" as="sourcePoint" />
            <mxPoint x="440" y="615" as="targetPoint" />
          </mxGeometry>
        </mxCell>
        <mxCell id="rIKoTJ0nYEZaXtPjpgZJ-62" value="" style="group" vertex="1" connectable="0" parent="rIKoTJ0nYEZaXtPjpgZJ-41">
          <mxGeometry x="60" y="525" width="160" height="60" as="geometry" />
        </mxCell>
        <mxCell id="rIKoTJ0nYEZaXtPjpgZJ-63" value="&lt;font color=&quot;#19498c&quot;&gt;&lt;b&gt;Controller Manager&lt;/b&gt;&lt;/font&gt;" style="rounded=0;whiteSpace=wrap;html=1;strokeWidth=1.5;strokeColor=#2875E2;align=left;spacingLeft=75;" vertex="1" parent="rIKoTJ0nYEZaXtPjpgZJ-62">
          <mxGeometry width="160" height="60" as="geometry" />
        </mxCell>
        <mxCell id="rIKoTJ0nYEZaXtPjpgZJ-64" value="" style="endArrow=none;html=1;rounded=0;strokeWidth=1.5;strokeColor=#2875E2;" edge="1" parent="rIKoTJ0nYEZaXtPjpgZJ-62">
          <mxGeometry width="50" height="50" relative="1" as="geometry">
            <mxPoint x="66" y="12" as="sourcePoint" />
            <mxPoint x="66" y="52" as="targetPoint" />
          </mxGeometry>
        </mxCell>
        <mxCell id="rIKoTJ0nYEZaXtPjpgZJ-65" value="" style="aspect=fixed;sketch=0;html=1;dashed=0;whitespace=wrap;fillColor=#2875E2;strokeColor=#ffffff;points=[[0.005,0.63,0],[0.1,0.2,0],[0.9,0.2,0],[0.5,0,0],[0.995,0.63,0],[0.72,0.99,0],[0.5,1,0],[0.28,0.99,0]];shape=mxgraph.kubernetes.icon2;prIcon=cm;spacingBottom=-20;verticalAlign=bottom;" vertex="1" parent="rIKoTJ0nYEZaXtPjpgZJ-62">
          <mxGeometry x="5" y="6" width="50" height="48" as="geometry" />
        </mxCell>
        <mxCell id="rIKoTJ0nYEZaXtPjpgZJ-66" style="edgeStyle=orthogonalEdgeStyle;rounded=0;orthogonalLoop=1;jettySize=auto;html=1;entryX=0;entryY=0.25;entryDx=0;entryDy=0;" edge="1" parent="rIKoTJ0nYEZaXtPjpgZJ-41" source="rIKoTJ0nYEZaXtPjpgZJ-63">
          <mxGeometry relative="1" as="geometry">
            <mxPoint x="280" y="600" as="targetPoint" />
          </mxGeometry>
        </mxCell>
        <mxCell id="rIKoTJ0nYEZaXtPjpgZJ-67" value="&lt;div style=&quot;font-size: 14px;&quot;&gt;&lt;b style=&quot;&quot;&gt;&lt;font style=&quot;font-size: 14px;&quot;&gt;Controller Manager&lt;br&gt;&lt;br&gt;&lt;/font&gt;&lt;/b&gt;&lt;/div&gt;daemon which embeds the core control loops shipped with Kubernetes, watches the shared state of the cluster through the apiserver - make changes to move current state to desired state" style="shape=note;whiteSpace=wrap;html=1;backgroundOutline=1;darkOpacity=0.05;fillColor=#fff2cc;strokeColor=#d6b656;fontColor=#666600;align=left;" vertex="1" parent="rIKoTJ0nYEZaXtPjpgZJ-41">
          <mxGeometry x="-300" y="390" width="200" height="150" as="geometry" />
        </mxCell>
        <mxCell id="rIKoTJ0nYEZaXtPjpgZJ-68" value="&lt;div style=&quot;font-size: 14px;&quot;&gt;&lt;b style=&quot;&quot;&gt;&lt;font style=&quot;font-size: 14px;&quot;&gt;Control Plane&lt;/font&gt;&lt;/b&gt;&lt;/div&gt;&lt;div style=&quot;font-size: 14px;&quot;&gt;&lt;b style=&quot;&quot;&gt;&lt;font style=&quot;font-size: 14px;&quot;&gt;&lt;br&gt;&lt;/font&gt;&lt;/b&gt;&lt;/div&gt;Each K8s cluster has one. It manages the worker nodes and pods in the cluster." style="shape=note;whiteSpace=wrap;html=1;backgroundOutline=1;darkOpacity=0.05;fillColor=#fff2cc;strokeColor=#d6b656;fontColor=#666600;align=left;" vertex="1" parent="rIKoTJ0nYEZaXtPjpgZJ-41">
          <mxGeometry x="260" y="250" width="200" height="150" as="geometry" />
        </mxCell>
        <mxCell id="rIKoTJ0nYEZaXtPjpgZJ-69" value="&lt;div style=&quot;font-size: 14px;&quot;&gt;&lt;b&gt;API Server&lt;/b&gt;&lt;/div&gt;&lt;div style=&quot;font-size: 14px;&quot;&gt;&lt;b style=&quot;&quot;&gt;&lt;font style=&quot;font-size: 14px;&quot;&gt;&lt;br&gt;&lt;/font&gt;&lt;/b&gt;&lt;/div&gt;The front end of the Kubernetes control plane. - scales horizontally.&lt;div&gt;&lt;br&gt;&lt;/div&gt;&lt;div&gt;All communication is done via the API server between worker nodes and control plane and cloud control manager.&lt;/div&gt;" style="shape=note;whiteSpace=wrap;html=1;backgroundOutline=1;darkOpacity=0.05;fillColor=#fff2cc;strokeColor=#d6b656;fontColor=#666600;align=left;" vertex="1" parent="rIKoTJ0nYEZaXtPjpgZJ-41">
          <mxGeometry x="470" y="628" width="200" height="150" as="geometry" />
        </mxCell>
        <mxCell id="rIKoTJ0nYEZaXtPjpgZJ-70" value="&lt;div style=&quot;font-size: 14px;&quot;&gt;&lt;b style=&quot;background-color: initial;&quot;&gt;Pods&lt;/b&gt;&lt;br&gt;&lt;/div&gt;&lt;div style=&quot;font-size: 14px;&quot;&gt;&lt;b&gt;&lt;br&gt;&lt;/b&gt;&lt;/div&gt;&lt;p style=&quot;box-sizing: border-box; margin-top: 0px; margin-bottom: 1rem; max-width: 80%; font-family: &amp;quot;open sans&amp;quot;, -apple-system, &amp;quot;system-ui&amp;quot;, &amp;quot;segoe ui&amp;quot;, Roboto, &amp;quot;helvetica neue&amp;quot;, Arial, sans-serif, &amp;quot;apple color emoji&amp;quot;, &amp;quot;segoe ui emoji&amp;quot;, &amp;quot;segoe ui symbol&amp;quot;;&quot;&gt;Smallest deployable units of computing - a group of one or more containers with shared storage, network resources and specifications for how to run the containers.&lt;/p&gt;&lt;p style=&quot;box-sizing: border-box; margin-top: 0px; margin-bottom: 1rem; max-width: 80%; color: rgb(34, 34, 34); font-family: &amp;quot;open sans&amp;quot;, -apple-system, &amp;quot;system-ui&amp;quot;, &amp;quot;segoe ui&amp;quot;, Roboto, &amp;quot;helvetica neue&amp;quot;, Arial, sans-serif, &amp;quot;apple color emoji&amp;quot;, &amp;quot;segoe ui emoji&amp;quot;, &amp;quot;segoe ui symbol&amp;quot;; font-size: 16px; background-color: rgb(255, 255, 255);&quot;&gt;&lt;/p&gt;" style="shape=note;whiteSpace=wrap;html=1;backgroundOutline=1;darkOpacity=0.05;fillColor=#fff2cc;strokeColor=#d6b656;fontColor=#666600;align=left;" vertex="1" parent="rIKoTJ0nYEZaXtPjpgZJ-41">
          <mxGeometry x="910" y="820" width="200" height="180" as="geometry" />
        </mxCell>
        <mxCell id="rIKoTJ0nYEZaXtPjpgZJ-71" value="&lt;div style=&quot;font-size: 14px;&quot;&gt;&lt;b&gt;Kubelet&lt;/b&gt;&lt;/div&gt;&lt;p style=&quot;box-sizing: border-box; margin-top: 0px; margin-bottom: 1rem; max-width: 80%; font-family: &amp;quot;open sans&amp;quot;, -apple-system, &amp;quot;system-ui&amp;quot;, &amp;quot;segoe ui&amp;quot;, Roboto, &amp;quot;helvetica neue&amp;quot;, Arial, sans-serif, &amp;quot;apple color emoji&amp;quot;, &amp;quot;segoe ui emoji&amp;quot;, &amp;quot;segoe ui symbol&amp;quot;;&quot;&gt;&lt;br&gt;&lt;/p&gt;&lt;p style=&quot;box-sizing: border-box; margin-top: 0px; margin-bottom: 1rem; max-width: 80%; font-family: &amp;quot;open sans&amp;quot;, -apple-system, &amp;quot;system-ui&amp;quot;, &amp;quot;segoe ui&amp;quot;, Roboto, &amp;quot;helvetica neue&amp;quot;, Arial, sans-serif, &amp;quot;apple color emoji&amp;quot;, &amp;quot;segoe ui emoji&amp;quot;, &amp;quot;segoe ui symbol&amp;quot;;&quot;&gt;An agent for managing the node and communicating with the Kubernetes control plane.&lt;/p&gt;&lt;p style=&quot;box-sizing: border-box; margin-top: 0px; margin-bottom: 1rem; max-width: 80%; color: rgb(34, 34, 34); font-family: &amp;quot;open sans&amp;quot;, -apple-system, &amp;quot;system-ui&amp;quot;, &amp;quot;segoe ui&amp;quot;, Roboto, &amp;quot;helvetica neue&amp;quot;, Arial, sans-serif, &amp;quot;apple color emoji&amp;quot;, &amp;quot;segoe ui emoji&amp;quot;, &amp;quot;segoe ui symbol&amp;quot;; font-size: 16px; background-color: rgb(255, 255, 255);&quot;&gt;&lt;/p&gt;" style="shape=note;whiteSpace=wrap;html=1;backgroundOutline=1;darkOpacity=0.05;fillColor=#fff2cc;strokeColor=#d6b656;fontColor=#666600;align=left;" vertex="1" parent="rIKoTJ0nYEZaXtPjpgZJ-41">
          <mxGeometry x="720" y="160" width="200" height="150" as="geometry" />
        </mxCell>
        <mxCell id="rIKoTJ0nYEZaXtPjpgZJ-72" value="&lt;div style=&quot;font-size: 14px;&quot;&gt;&lt;b&gt;Other Notes&lt;/b&gt;&lt;/div&gt;&lt;div style=&quot;font-size: 14px;&quot;&gt;&lt;b&gt;&lt;br&gt;&lt;/b&gt;&lt;/div&gt;&lt;p style=&quot;box-sizing: border-box; margin-top: 0px; margin-bottom: 1rem; max-width: 80%; font-family: &amp;quot;open sans&amp;quot;, -apple-system, &amp;quot;system-ui&amp;quot;, &amp;quot;segoe ui&amp;quot;, Roboto, &amp;quot;helvetica neue&amp;quot;, Arial, sans-serif, &amp;quot;apple color emoji&amp;quot;, &amp;quot;segoe ui emoji&amp;quot;, &amp;quot;segoe ui symbol&amp;quot;;&quot;&gt;1. Prod workloads should have a min of 3 nodes. If one goes down, an &lt;font color=&quot;#ff3333&quot;&gt;etcd member&lt;/font&gt; and &lt;font color=&quot;#ff3333&quot;&gt;control plane&lt;/font&gt; instance are lost, redundancy is compromised.&lt;/p&gt;&lt;p style=&quot;box-sizing: border-box; margin-top: 0px; margin-bottom: 1rem; max-width: 80%; font-family: &amp;quot;open sans&amp;quot;, -apple-system, &amp;quot;system-ui&amp;quot;, &amp;quot;segoe ui&amp;quot;, Roboto, &amp;quot;helvetica neue&amp;quot;, Arial, sans-serif, &amp;quot;apple color emoji&amp;quot;, &amp;quot;segoe ui emoji&amp;quot;, &amp;quot;segoe ui symbol&amp;quot;;&quot;&gt;2. There are different container runtime interfaces such as CRI-O and containerd - How are they implemented?&lt;/p&gt;&lt;p style=&quot;box-sizing: border-box; margin-top: 0px; margin-bottom: 1rem; max-width: 80%; color: rgb(34, 34, 34); font-family: &amp;quot;open sans&amp;quot;, -apple-system, &amp;quot;system-ui&amp;quot;, &amp;quot;segoe ui&amp;quot;, Roboto, &amp;quot;helvetica neue&amp;quot;, Arial, sans-serif, &amp;quot;apple color emoji&amp;quot;, &amp;quot;segoe ui emoji&amp;quot;, &amp;quot;segoe ui symbol&amp;quot;; font-size: 16px; background-color: rgb(255, 255, 255);&quot;&gt;&lt;/p&gt;" style="shape=note;whiteSpace=wrap;html=1;backgroundOutline=1;darkOpacity=0.05;fillColor=#fff2cc;strokeColor=#d6b656;fontColor=#666600;align=left;" vertex="1" parent="rIKoTJ0nYEZaXtPjpgZJ-41">
          <mxGeometry x="1220" y="80" width="420" height="190" as="geometry" />
        </mxCell>
      </root>
    </mxGraphModel>
  </diagram>
  <diagram id="WMnXTvJtiaR5kkUUwBvJ" name="Page-2">
    <mxGraphModel dx="424" dy="575" grid="1" gridSize="10" guides="1" tooltips="1" connect="1" arrows="1" fold="1" page="1" pageScale="1" pageWidth="827" pageHeight="1169" math="0" shadow="0">
      <root>
        <mxCell id="0" />
        <mxCell id="1" parent="0" />
        <mxCell id="0y-Ugk34CN4X4bvtcnJf-1" value="" style="group" vertex="1" connectable="0" parent="1">
          <mxGeometry x="120" y="480" width="160" height="60" as="geometry" />
        </mxCell>
        <mxCell id="0y-Ugk34CN4X4bvtcnJf-2" value="&lt;font color=&quot;#19498c&quot;&gt;&lt;b&gt;Virtual Machine&lt;/b&gt;&lt;/font&gt;" style="rounded=0;whiteSpace=wrap;html=1;strokeWidth=1.5;strokeColor=#2875E2;align=left;spacingLeft=75;" vertex="1" parent="0y-Ugk34CN4X4bvtcnJf-1">
          <mxGeometry width="160" height="60" as="geometry" />
        </mxCell>
        <mxCell id="0y-Ugk34CN4X4bvtcnJf-3" value="" style="endArrow=none;html=1;rounded=0;strokeWidth=1.5;strokeColor=#2875E2;" edge="1" parent="0y-Ugk34CN4X4bvtcnJf-1">
          <mxGeometry width="50" height="50" relative="1" as="geometry">
            <mxPoint x="66" y="12" as="sourcePoint" />
            <mxPoint x="66" y="52" as="targetPoint" />
          </mxGeometry>
        </mxCell>
        <mxCell id="0y-Ugk34CN4X4bvtcnJf-4" value="" style="image;sketch=0;aspect=fixed;html=1;points=[];align=center;fontSize=12;image=img/lib/mscae/Virtual_Machine.svg;" vertex="1" parent="0y-Ugk34CN4X4bvtcnJf-1">
          <mxGeometry x="14" y="12.5" width="38.05" height="35" as="geometry" />
        </mxCell>
        <mxCell id="0y-Ugk34CN4X4bvtcnJf-5" value="&lt;font&gt;kubebtl installed&lt;/font&gt;" style="rounded=0;whiteSpace=wrap;html=1;strokeColor=#2875E2;fillColor=#2875E2;strokeWidth=1.5;fontColor=#FFFFFF;" vertex="1" parent="1">
          <mxGeometry x="120" y="460" width="160" height="20" as="geometry" />
        </mxCell>
        <mxCell id="0y-Ugk34CN4X4bvtcnJf-6" value="manifest.yaml" style="verticalLabelPosition=bottom;html=1;verticalAlign=top;strokeWidth=1;align=center;outlineConnect=0;dashed=0;outlineConnect=0;shape=mxgraph.aws3d.file;aspect=fixed;strokeColor=#2875E2;fontColor=#19498C;" vertex="1" parent="1">
          <mxGeometry x="360" y="210" width="30.8" height="70.6" as="geometry" />
        </mxCell>
        <mxCell id="0y-Ugk34CN4X4bvtcnJf-7" value="&lt;div style=&quot;font-size: 14px;&quot;&gt;&lt;b&gt;Manifest.yaml&lt;/b&gt;&lt;/div&gt;&lt;div style=&quot;font-size: 14px;&quot;&gt;&lt;b&gt;&lt;br&gt;&lt;/b&gt;&lt;/div&gt;&lt;p style=&quot;box-sizing: border-box; margin-top: 0px; margin-bottom: 1rem; max-width: 80%; font-family: &amp;quot;open sans&amp;quot;, -apple-system, &amp;quot;system-ui&amp;quot;, &amp;quot;segoe ui&amp;quot;, Roboto, &amp;quot;helvetica neue&amp;quot;, Arial, sans-serif, &amp;quot;apple color emoji&amp;quot;, &amp;quot;segoe ui emoji&amp;quot;, &amp;quot;segoe ui symbol&amp;quot;;&quot;&gt;&lt;span style=&quot;font-family: Helvetica;&quot;&gt;Describe the desired state of Kube API objects within the cluster.&lt;/span&gt;&lt;/p&gt;&lt;div style=&quot;&quot;&gt;Can be broken down into 3 parts:&lt;/div&gt;&lt;div style=&quot;&quot;&gt;&lt;b&gt;metadata, spec, status&lt;/b&gt;&lt;/div&gt;&lt;div style=&quot;&quot;&gt;&lt;b&gt;&lt;br&gt;&lt;/b&gt;&lt;/div&gt;&lt;div style=&quot;&quot;&gt;&lt;b&gt;Metadata&lt;/b&gt;&amp;nbsp;- Essential info like name and namespace of objects.&lt;/div&gt;&lt;div style=&quot;&quot;&gt;&lt;b&gt;Spec &lt;/b&gt;- outlines the desired state for the object&lt;/div&gt;&lt;div style=&quot;&quot;&gt;&lt;b&gt;Status&lt;/b&gt;&amp;nbsp;- not usually included in created manifest files, but managed by Kube system to reflect the current state of resources.&lt;/div&gt;&lt;p style=&quot;box-sizing: border-box; margin-top: 0px; margin-bottom: 1rem; max-width: 80%; color: rgb(34, 34, 34); font-family: &amp;quot;open sans&amp;quot;, -apple-system, &amp;quot;system-ui&amp;quot;, &amp;quot;segoe ui&amp;quot;, Roboto, &amp;quot;helvetica neue&amp;quot;, Arial, sans-serif, &amp;quot;apple color emoji&amp;quot;, &amp;quot;segoe ui emoji&amp;quot;, &amp;quot;segoe ui symbol&amp;quot;; font-size: 16px; background-color: rgb(255, 255, 255);&quot;&gt;&lt;/p&gt;" style="shape=note;whiteSpace=wrap;html=1;backgroundOutline=1;darkOpacity=0.05;fillColor=#fff2cc;strokeColor=#d6b656;fontColor=#666600;align=left;" vertex="1" parent="1">
          <mxGeometry x="280" y="600" width="240" height="250" as="geometry" />
        </mxCell>
        <mxCell id="0y-Ugk34CN4X4bvtcnJf-8" value="&lt;font color=&quot;#19498c&quot;&gt;Kubernetes Control Plane&lt;/font&gt;" style="rounded=0;whiteSpace=wrap;html=1;strokeColor=#19498C;strokeWidth=1.5;verticalAlign=top;align=left;spacingLeft=35;fontSize=14;fillColor=none;" vertex="1" parent="1">
          <mxGeometry x="600" y="400" width="380" height="340" as="geometry" />
        </mxCell>
        <mxCell id="0y-Ugk34CN4X4bvtcnJf-9" value="" style="rounded=0;whiteSpace=wrap;html=1;strokeColor=#19498C;strokeWidth=1.5;fillColor=#19498C;" vertex="1" parent="1">
          <mxGeometry x="600" y="400" width="30" height="30" as="geometry" />
        </mxCell>
        <mxCell id="0y-Ugk34CN4X4bvtcnJf-10" value="" style="html=1;verticalLabelPosition=bottom;align=center;labelBackgroundColor=#ffffff;verticalAlign=top;strokeWidth=2;strokeColor=#FFFFFF;shadow=0;dashed=0;shape=mxgraph.ios7.icons.cube;fillColor=none;" vertex="1" parent="1">
          <mxGeometry x="605" y="405" width="20" height="20" as="geometry" />
        </mxCell>
        <mxCell id="0y-Ugk34CN4X4bvtcnJf-11" value="" style="group" vertex="1" connectable="0" parent="1">
          <mxGeometry x="620" y="450" width="160" height="60" as="geometry" />
        </mxCell>
        <mxCell id="0y-Ugk34CN4X4bvtcnJf-12" value="&lt;font color=&quot;#19498c&quot;&gt;&lt;b&gt;Cloud&amp;nbsp;&lt;/b&gt;&lt;/font&gt;&lt;div&gt;&lt;font color=&quot;#19498c&quot;&gt;&lt;b&gt;Control Manager&lt;/b&gt;&lt;/font&gt;&lt;/div&gt;" style="rounded=0;whiteSpace=wrap;html=1;strokeWidth=1.5;strokeColor=#2875E2;align=left;spacingLeft=75;" vertex="1" parent="0y-Ugk34CN4X4bvtcnJf-11">
          <mxGeometry width="160" height="60" as="geometry" />
        </mxCell>
        <mxCell id="0y-Ugk34CN4X4bvtcnJf-13" value="" style="endArrow=none;html=1;rounded=0;strokeWidth=1.5;strokeColor=#2875E2;" edge="1" parent="0y-Ugk34CN4X4bvtcnJf-11">
          <mxGeometry width="50" height="50" relative="1" as="geometry">
            <mxPoint x="66" y="12" as="sourcePoint" />
            <mxPoint x="66" y="52" as="targetPoint" />
          </mxGeometry>
        </mxCell>
        <mxCell id="0y-Ugk34CN4X4bvtcnJf-14" value="" style="aspect=fixed;sketch=0;html=1;dashed=0;whitespace=wrap;fillColor=#2875E2;strokeColor=#ffffff;points=[[0.005,0.63,0],[0.1,0.2,0],[0.9,0.2,0],[0.5,0,0],[0.995,0.63,0],[0.72,0.99,0],[0.5,1,0],[0.28,0.99,0]];shape=mxgraph.kubernetes.icon2;prIcon=c_c_m" vertex="1" parent="0y-Ugk34CN4X4bvtcnJf-11">
          <mxGeometry x="5" y="6" width="50" height="48" as="geometry" />
        </mxCell>
        <mxCell id="0y-Ugk34CN4X4bvtcnJf-15" value="" style="group" vertex="1" connectable="0" parent="1">
          <mxGeometry x="620" y="555" width="160" height="60" as="geometry" />
        </mxCell>
        <mxCell id="0y-Ugk34CN4X4bvtcnJf-16" value="&lt;font color=&quot;#19498c&quot;&gt;&lt;b&gt;API&lt;/b&gt;&lt;/font&gt;&lt;div&gt;&lt;font color=&quot;#19498c&quot;&gt;&lt;b&gt;Server&lt;/b&gt;&lt;/font&gt;&lt;/div&gt;" style="rounded=0;whiteSpace=wrap;html=1;strokeWidth=1.5;strokeColor=#2875E2;align=left;spacingLeft=75;" vertex="1" parent="0y-Ugk34CN4X4bvtcnJf-15">
          <mxGeometry width="160" height="60" as="geometry" />
        </mxCell>
        <mxCell id="0y-Ugk34CN4X4bvtcnJf-17" value="" style="endArrow=none;html=1;rounded=0;strokeWidth=1.5;strokeColor=#2875E2;" edge="1" parent="0y-Ugk34CN4X4bvtcnJf-15">
          <mxGeometry width="50" height="50" relative="1" as="geometry">
            <mxPoint x="66" y="12" as="sourcePoint" />
            <mxPoint x="66" y="52" as="targetPoint" />
          </mxGeometry>
        </mxCell>
        <mxCell id="0y-Ugk34CN4X4bvtcnJf-18" value="" style="aspect=fixed;sketch=0;html=1;dashed=0;whitespace=wrap;fillColor=#2875E2;strokeColor=#ffffff;points=[[0.005,0.63,0],[0.1,0.2,0],[0.9,0.2,0],[0.5,0,0],[0.995,0.63,0],[0.72,0.99,0],[0.5,1,0],[0.28,0.99,0]];shape=mxgraph.kubernetes.icon2;prIcon=c_c_m" vertex="1" parent="0y-Ugk34CN4X4bvtcnJf-15">
          <mxGeometry x="5" y="6" width="50" height="48" as="geometry" />
        </mxCell>
        <mxCell id="0y-Ugk34CN4X4bvtcnJf-19" style="edgeStyle=orthogonalEdgeStyle;rounded=0;orthogonalLoop=1;jettySize=auto;html=1;startArrow=classic;startFill=1;" edge="1" parent="1" source="0y-Ugk34CN4X4bvtcnJf-16" target="0y-Ugk34CN4X4bvtcnJf-12">
          <mxGeometry relative="1" as="geometry" />
        </mxCell>
        <mxCell id="0y-Ugk34CN4X4bvtcnJf-20" value="" style="group" vertex="1" connectable="0" parent="1">
          <mxGeometry x="620" y="660" width="160" height="60" as="geometry" />
        </mxCell>
        <mxCell id="0y-Ugk34CN4X4bvtcnJf-21" value="&lt;font color=&quot;#19498c&quot;&gt;&lt;b&gt;Scheduler&lt;/b&gt;&lt;/font&gt;" style="rounded=0;whiteSpace=wrap;html=1;strokeWidth=1.5;strokeColor=#2875E2;align=left;spacingLeft=75;" vertex="1" parent="0y-Ugk34CN4X4bvtcnJf-20">
          <mxGeometry width="160" height="60" as="geometry" />
        </mxCell>
        <mxCell id="0y-Ugk34CN4X4bvtcnJf-22" value="" style="endArrow=none;html=1;rounded=0;strokeWidth=1.5;strokeColor=#2875E2;" edge="1" parent="0y-Ugk34CN4X4bvtcnJf-20">
          <mxGeometry width="50" height="50" relative="1" as="geometry">
            <mxPoint x="66" y="12" as="sourcePoint" />
            <mxPoint x="66" y="52" as="targetPoint" />
          </mxGeometry>
        </mxCell>
        <mxCell id="0y-Ugk34CN4X4bvtcnJf-23" value="" style="aspect=fixed;sketch=0;html=1;dashed=0;whitespace=wrap;fillColor=#2875E2;strokeColor=#ffffff;points=[[0.005,0.63,0],[0.1,0.2,0],[0.9,0.2,0],[0.5,0,0],[0.995,0.63,0],[0.72,0.99,0],[0.5,1,0],[0.28,0.99,0]];shape=mxgraph.kubernetes.icon2;prIcon=c_c_m" vertex="1" parent="0y-Ugk34CN4X4bvtcnJf-20">
          <mxGeometry x="5" y="6" width="50" height="48" as="geometry" />
        </mxCell>
        <mxCell id="0y-Ugk34CN4X4bvtcnJf-24" value="" style="group" vertex="1" connectable="0" parent="1">
          <mxGeometry x="800" y="660" width="160" height="60" as="geometry" />
        </mxCell>
        <mxCell id="0y-Ugk34CN4X4bvtcnJf-25" value="&lt;font color=&quot;#19498c&quot;&gt;&lt;b&gt;ETCD&lt;/b&gt;&lt;/font&gt;" style="rounded=0;whiteSpace=wrap;html=1;strokeWidth=1.5;strokeColor=#2875E2;align=left;spacingLeft=75;" vertex="1" parent="0y-Ugk34CN4X4bvtcnJf-24">
          <mxGeometry width="160" height="60" as="geometry" />
        </mxCell>
        <mxCell id="0y-Ugk34CN4X4bvtcnJf-26" value="" style="endArrow=none;html=1;rounded=0;strokeWidth=1.5;strokeColor=#2875E2;" edge="1" parent="0y-Ugk34CN4X4bvtcnJf-24">
          <mxGeometry width="50" height="50" relative="1" as="geometry">
            <mxPoint x="66" y="12" as="sourcePoint" />
            <mxPoint x="66" y="52" as="targetPoint" />
          </mxGeometry>
        </mxCell>
        <mxCell id="0y-Ugk34CN4X4bvtcnJf-27" value="" style="aspect=fixed;sketch=0;html=1;dashed=0;whitespace=wrap;fillColor=#2875E2;strokeColor=#ffffff;points=[[0.005,0.63,0],[0.1,0.2,0],[0.9,0.2,0],[0.5,0,0],[0.995,0.63,0],[0.72,0.99,0],[0.5,1,0],[0.28,0.99,0]];shape=mxgraph.kubernetes.icon2;prIcon=etcd;verticalAlign=bottom;spacingBottom=-20;" vertex="1" parent="0y-Ugk34CN4X4bvtcnJf-24">
          <mxGeometry x="5" y="6" width="50" height="48" as="geometry" />
        </mxCell>
        <mxCell id="0y-Ugk34CN4X4bvtcnJf-28" style="edgeStyle=orthogonalEdgeStyle;rounded=0;orthogonalLoop=1;jettySize=auto;html=1;entryX=1;entryY=0.75;entryDx=0;entryDy=0;exitX=0.5;exitY=0;exitDx=0;exitDy=0;" edge="1" parent="1" source="0y-Ugk34CN4X4bvtcnJf-25" target="0y-Ugk34CN4X4bvtcnJf-16">
          <mxGeometry relative="1" as="geometry" />
        </mxCell>
        <mxCell id="0y-Ugk34CN4X4bvtcnJf-29" value="" style="group" vertex="1" connectable="0" parent="1">
          <mxGeometry x="800" y="450" width="160" height="60" as="geometry" />
        </mxCell>
        <mxCell id="0y-Ugk34CN4X4bvtcnJf-30" value="&lt;font color=&quot;#19498c&quot;&gt;&lt;b&gt;Controller Manager&lt;/b&gt;&lt;/font&gt;" style="rounded=0;whiteSpace=wrap;html=1;strokeWidth=1.5;strokeColor=#2875E2;align=left;spacingLeft=75;" vertex="1" parent="0y-Ugk34CN4X4bvtcnJf-29">
          <mxGeometry width="160" height="60" as="geometry" />
        </mxCell>
        <mxCell id="0y-Ugk34CN4X4bvtcnJf-31" value="" style="endArrow=none;html=1;rounded=0;strokeWidth=1.5;strokeColor=#2875E2;" edge="1" parent="0y-Ugk34CN4X4bvtcnJf-29">
          <mxGeometry width="50" height="50" relative="1" as="geometry">
            <mxPoint x="66" y="12" as="sourcePoint" />
            <mxPoint x="66" y="52" as="targetPoint" />
          </mxGeometry>
        </mxCell>
        <mxCell id="0y-Ugk34CN4X4bvtcnJf-32" value="" style="aspect=fixed;sketch=0;html=1;dashed=0;whitespace=wrap;fillColor=#2875E2;strokeColor=#ffffff;points=[[0.005,0.63,0],[0.1,0.2,0],[0.9,0.2,0],[0.5,0,0],[0.995,0.63,0],[0.72,0.99,0],[0.5,1,0],[0.28,0.99,0]];shape=mxgraph.kubernetes.icon2;prIcon=cm;spacingBottom=-20;verticalAlign=bottom;" vertex="1" parent="0y-Ugk34CN4X4bvtcnJf-29">
          <mxGeometry x="5" y="6" width="50" height="48" as="geometry" />
        </mxCell>
        <mxCell id="0y-Ugk34CN4X4bvtcnJf-33" style="edgeStyle=orthogonalEdgeStyle;rounded=0;orthogonalLoop=1;jettySize=auto;html=1;entryX=1;entryY=0.25;entryDx=0;entryDy=0;exitX=0.5;exitY=1;exitDx=0;exitDy=0;" edge="1" parent="1" source="0y-Ugk34CN4X4bvtcnJf-30" target="0y-Ugk34CN4X4bvtcnJf-16">
          <mxGeometry relative="1" as="geometry" />
        </mxCell>
        <mxCell id="0y-Ugk34CN4X4bvtcnJf-34" style="edgeStyle=orthogonalEdgeStyle;rounded=0;orthogonalLoop=1;jettySize=auto;html=1;entryX=0.5;entryY=1;entryDx=0;entryDy=0;" edge="1" parent="1" source="0y-Ugk34CN4X4bvtcnJf-21" target="0y-Ugk34CN4X4bvtcnJf-16">
          <mxGeometry relative="1" as="geometry" />
        </mxCell>
        <mxCell id="0y-Ugk34CN4X4bvtcnJf-35" value="https://learn.microsoft.com/en-us/azure/aks/learn/quick-kubernetes-deploy-cli#connect-to-the-cluster" style="text;html=1;align=center;verticalAlign=middle;resizable=0;points=[];autosize=1;strokeColor=none;fillColor=none;" vertex="1" parent="1">
          <mxGeometry x="430" y="840" width="560" height="30" as="geometry" />
        </mxCell>
      </root>
    </mxGraphModel>
  </diagram>
</mxfile>
